<svg xmlns="http://www.w3.org/2000/svg" viewBox="0 0 34 34"><defs><style>.cls-1{fill:#fff;}.cls-2{fill:#f53838;}</style></defs><title>Facebook</title><g id="Слой_1" data-name="Слой 1"><path class="cls-1" d="M34,5A17,17,0,1,0,51,22,17,17,0,0,0,34,5Zm4,11.75H35.47c-.3,0-.64.4-.64.93v1.84H38l-.48,2.63H34.83v7.9h-3v-7.9H29.08V19.52h2.74V18a3.79,3.79,0,0,1,3.65-4H38Z" transform="translate(-17 -5)"/></g><g id="Слой_2" data-name="Слой 2"><path class="cls-2" d="M38,16.75H35.47c-.3,0-.64.4-.64.93v1.84H38l-.48,2.63H34.83v7.9h-3v-7.9H29.08V19.52h2.74V18a3.79,3.79,0,0,1,3.65-4H38Z" transform="translate(-17 -5)"/></g></svg>