<svg id="Слой_1" data-name="Слой 1" xmlns="http://www.w3.org/2000/svg" viewBox="0 0 34 34"><defs><style>.cls-1{fill:#f53838;}.cls-2{fill:#fff;}</style></defs><title>Instagram</title><path class="cls-1" d="M41.91,15.63a.55.55,0,0,0-.54-.54H39.25a.55.55,0,0,0-.38.16.54.54,0,0,0-.15.38v2.12a.53.53,0,0,0,.53.53h2.12a.54.54,0,0,0,.38-.15.55.55,0,0,0,.16-.38Zm0,15.22H28.11a2,2,0,0,1-2-2V15.11a2,2,0,0,1,2-2H41.89a2,2,0,0,1,2,2V28.89A2,2,0,0,1,41.89,30.85ZM31.24,25.76A5.35,5.35,0,0,1,29.69,22a5.26,5.26,0,0,1,.08-.89H27.92v7.08a.89.89,0,0,0,.89.89H41.19a.86.86,0,0,0,.63-.26.88.88,0,0,0,.26-.63V21.11H40.23a5.26,5.26,0,0,1,.08.89,5.32,5.32,0,0,1-9.07,3.76ZM31.46,22a3.54,3.54,0,0,0,4.9,3.27,3.43,3.43,0,0,0,1.14-.77,3.58,3.58,0,0,0,.77-1.15,3.54,3.54,0,0,0,0-2.71,3.58,3.58,0,0,0-.77-1.15,3.39,3.39,0,0,0-1.15-.76A3.5,3.5,0,0,0,35,18.46,3.52,3.52,0,0,0,31.46,22Z" transform="translate(-18 -5)"/><path class="cls-2" d="M50.71,15.49A17.09,17.09,0,1,1,47,10,17.14,17.14,0,0,1,50.71,15.49Zm-6.86,13.4V15.11a2,2,0,0,0-2-2H28.11a2,2,0,0,0-2,2V28.89a2,2,0,0,0,2,2H41.89A2,2,0,0,0,43.85,28.89Z" transform="translate(-18 -5)"/><path class="cls-2" d="M41.19,29.08H28.81a.89.89,0,0,1-.89-.89V21.11h1.85a5.26,5.26,0,0,0-.08.89,5.31,5.31,0,1,0,10.62,0,5.26,5.26,0,0,0-.08-.89h1.85v7.08a.88.88,0,0,1-.26.63A.86.86,0,0,1,41.19,29.08Z" transform="translate(-18 -5)"/><path class="cls-2" d="M41.75,15.25a.55.55,0,0,1,.16.38v2.12a.55.55,0,0,1-.16.38.54.54,0,0,1-.38.15H39.25a.53.53,0,0,1-.53-.53V15.63a.54.54,0,0,1,.15-.38.55.55,0,0,1,.38-.16h2.12A.55.55,0,0,1,41.75,15.25Z" transform="translate(-18 -5)"/><path class="cls-2" d="M38.27,20.64a3.54,3.54,0,0,1,0,2.71,3.58,3.58,0,0,1-.77,1.15,3.43,3.43,0,0,1-1.14.77A3.54,3.54,0,0,1,31.46,22,3.52,3.52,0,0,1,35,18.46a3.5,3.5,0,0,1,1.35.27,3.39,3.39,0,0,1,1.15.76A3.58,3.58,0,0,1,38.27,20.64Z" transform="translate(-18 -5)"/></svg>