<svg xmlns="http://www.w3.org/2000/svg" viewBox="0 0 34 34"><defs><style>.cls-1{fill:#fff;}.cls-2{fill:#f53838;}</style></defs><title>Twitter</title><g id="Слой_1" data-name="Слой 1"><path class="cls-1" d="M35,5A17,17,0,1,0,52,22,17,17,0,0,0,35,5Zm6.92,13.93v.43a9.51,9.51,0,0,1-14.65,8,6.87,6.87,0,0,0,.8.05A6.69,6.69,0,0,0,32.22,26a3.35,3.35,0,0,1-3.12-2.32,3.22,3.22,0,0,0,1.51-.06,3.32,3.32,0,0,1-1.93-1.16,3.36,3.36,0,0,1-.76-2.12v0a3.38,3.38,0,0,0,1.52.42,3.35,3.35,0,0,1-1-4.48,9.52,9.52,0,0,0,6.9,3.51,3.38,3.38,0,0,1,.21-2.15A3.3,3.3,0,0,1,37,16a3.33,3.33,0,0,1,4,.66,6.65,6.65,0,0,0,2.12-.81,3.37,3.37,0,0,1-1.47,1.85,6.68,6.68,0,0,0,1.92-.53A6.86,6.86,0,0,1,41.92,18.93Z" transform="translate(-18 -5)"/></g><g id="Слой_2" data-name="Слой 2"><path class="cls-2" d="M41.92,18.93v.43a9.51,9.51,0,0,1-14.65,8,6.87,6.87,0,0,0,.8.05A6.69,6.69,0,0,0,32.22,26a3.35,3.35,0,0,1-3.12-2.32,3.22,3.22,0,0,0,1.51-.06,3.32,3.32,0,0,1-1.93-1.16,3.36,3.36,0,0,1-.76-2.12v0a3.38,3.38,0,0,0,1.52.42,3.35,3.35,0,0,1-1-4.48,9.52,9.52,0,0,0,6.9,3.51,3.38,3.38,0,0,1,.21-2.15A3.3,3.3,0,0,1,37,16a3.33,3.33,0,0,1,4,.66,6.65,6.65,0,0,0,2.12-.81,3.37,3.37,0,0,1-1.47,1.85,6.68,6.68,0,0,0,1.92-.53A6.86,6.86,0,0,1,41.92,18.93Z" transform="translate(-18 -5)"/></g></svg>